<mxfile host="app.diagrams.net" modified="2024-06-30T10:52:49.143Z" agent="Mozilla/5.0 (Macintosh; Intel Mac OS X 10_15_7) AppleWebKit/537.36 (KHTML, like Gecko) Chrome/122.0.0.0 YaBrowser/24.4.0.0 Safari/537.36" version="24.6.4" etag="H3T-f_8oXmhzJRZ3vAZS" type="github">
  <diagram name="Страница — 1" id="WOMA6blzUlJ7983q4EB3">
    <mxGraphModel>
      <root>
        <mxCell id="0" />
        <mxCell id="1" parent="0" />
      </root>
    </mxGraphModel>
  </diagram>
</mxfile>
